name MotionFile_C_LatBend1Degr 
datacolumns 7 
datarows 100
range 0.000000 1.000000
endheader
time	flex_extension 	 lat_bending 	 axial_rotation	flex_extension_u 	 lat_bending_u 	 axial_rotation_u	
	 0.000000	 0.000000	 0.000000	 0.000000	 0.000000	 6.283185	 0.000000
	 0.010101	 0.000000	 0.063424	 0.000000	 0.000000	 6.270535	 0.000000
	 0.020202	 0.000000	 0.126592	 0.000000	 0.000000	 6.232636	 0.000000
	 0.030303	 0.000000	 0.189251	 0.000000	 0.000000	 6.169640	 0.000000
	 0.040404	 0.000000	 0.251148	 0.000000	 0.000000	 6.081801	 0.000000
	 0.050505	 0.000000	 0.312033	 0.000000	 0.000000	 5.969473	 0.000000
	 0.060606	 0.000000	 0.371662	 0.000000	 0.000000	 5.833108	 0.000000
	 0.070707	 0.000000	 0.429795	 0.000000	 0.000000	 5.673255	 0.000000
	 0.080808	 0.000000	 0.486197	 0.000000	 0.000000	 5.490558	 0.000000
	 0.090909	 0.000000	 0.540641	 0.000000	 0.000000	 5.285752	 0.000000
	 0.101010	 0.000000	 0.592908	 0.000000	 0.000000	 5.059662	 0.000000
	 0.111111	 0.000000	 0.642788	 0.000000	 0.000000	 4.813199	 0.000000
	 0.121212	 0.000000	 0.690079	 0.000000	 0.000000	 4.547355	 0.000000
	 0.131313	 0.000000	 0.734592	 0.000000	 0.000000	 4.263200	 0.000000
	 0.141414	 0.000000	 0.776146	 0.000000	 0.000000	 3.961879	 0.000000
	 0.151515	 0.000000	 0.814576	 0.000000	 0.000000	 3.644605	 0.000000
	 0.161616	 0.000000	 0.849725	 0.000000	 0.000000	 3.312655	 0.000000
	 0.171717	 0.000000	 0.881453	 0.000000	 0.000000	 2.967367	 0.000000
	 0.181818	 0.000000	 0.909632	 0.000000	 0.000000	 2.610130	 0.000000
	 0.191919	 0.000000	 0.934148	 0.000000	 0.000000	 2.242382	 0.000000
	 0.202020	 0.000000	 0.954902	 0.000000	 0.000000	 1.865606	 0.000000
	 0.212121	 0.000000	 0.971812	 0.000000	 0.000000	 1.481317	 0.000000
	 0.222222	 0.000000	 0.984808	 0.000000	 0.000000	 1.091064	 0.000000
	 0.232323	 0.000000	 0.993838	 0.000000	 0.000000	 0.696417	 0.000000
	 0.242424	 0.000000	 0.998867	 0.000000	 0.000000	 0.298966	 0.000000
	 0.252525	 0.000000	 0.999874	 0.000000	 0.000000	 -0.099689	 0.000000
	 0.262626	 0.000000	 0.996855	 0.000000	 0.000000	 -0.497942	 0.000000
	 0.272727	 0.000000	 0.989821	 0.000000	 0.000000	 -0.894191	 0.000000
	 0.282828	 0.000000	 0.978802	 0.000000	 0.000000	 -1.286838	 0.000000
	 0.292929	 0.000000	 0.963842	 0.000000	 0.000000	 -1.674304	 0.000000
	 0.303030	 0.000000	 0.945001	 0.000000	 0.000000	 -2.055029	 0.000000
	 0.313131	 0.000000	 0.922354	 0.000000	 0.000000	 -2.427478	 0.000000
	 0.323232	 0.000000	 0.895994	 0.000000	 0.000000	 -2.790153	 0.000000
	 0.333333	 0.000000	 0.866025	 0.000000	 0.000000	 -3.141593	 0.000000
	 0.343434	 0.000000	 0.832570	 0.000000	 0.000000	 -3.480382	 0.000000
	 0.353535	 0.000000	 0.795762	 0.000000	 0.000000	 -3.805158	 0.000000
	 0.363636	 0.000000	 0.755750	 0.000000	 0.000000	 -4.114611	 0.000000
	 0.373737	 0.000000	 0.712694	 0.000000	 0.000000	 -4.407497	 0.000000
	 0.383838	 0.000000	 0.666769	 0.000000	 0.000000	 -4.682635	 0.000000
	 0.393939	 0.000000	 0.618159	 0.000000	 0.000000	 -4.938917	 0.000000
	 0.404040	 0.000000	 0.567060	 0.000000	 0.000000	 -5.175313	 0.000000
	 0.414141	 0.000000	 0.513677	 0.000000	 0.000000	 -5.390869	 0.000000
	 0.424242	 0.000000	 0.458227	 0.000000	 0.000000	 -5.584718	 0.000000
	 0.434343	 0.000000	 0.400931	 0.000000	 0.000000	 -5.756079	 0.000000
	 0.444444	 0.000000	 0.342020	 0.000000	 0.000000	 -5.904263	 0.000000
	 0.454545	 0.000000	 0.281733	 0.000000	 0.000000	 -6.028672	 0.000000
	 0.464646	 0.000000	 0.220311	 0.000000	 0.000000	 -6.128806	 0.000000
	 0.474747	 0.000000	 0.158001	 0.000000	 0.000000	 -6.204262	 0.000000
	 0.484848	 0.000000	 0.095056	 0.000000	 0.000000	 -6.254735	 0.000000
	 0.494949	 0.000000	 0.031728	 0.000000	 0.000000	 -6.280022	 0.000000
	 0.505051	 0.000000	 -0.031728	 0.000000	 0.000000	 -6.280022	 0.000000
	 0.515152	 0.000000	 -0.095056	 0.000000	 0.000000	 -6.254735	 0.000000
	 0.525253	 0.000000	 -0.158001	 0.000000	 0.000000	 -6.204262	 0.000000
	 0.535354	 0.000000	 -0.220311	 0.000000	 0.000000	 -6.128806	 0.000000
	 0.545455	 0.000000	 -0.281733	 0.000000	 0.000000	 -6.028672	 0.000000
	 0.555556	 0.000000	 -0.342020	 0.000000	 0.000000	 -5.904263	 0.000000
	 0.565657	 0.000000	 -0.400931	 0.000000	 0.000000	 -5.756079	 0.000000
	 0.575758	 0.000000	 -0.458227	 0.000000	 0.000000	 -5.584718	 0.000000
	 0.585859	 0.000000	 -0.513677	 0.000000	 0.000000	 -5.390869	 0.000000
	 0.595960	 0.000000	 -0.567060	 0.000000	 0.000000	 -5.175313	 0.000000
	 0.606061	 0.000000	 -0.618159	 0.000000	 0.000000	 -4.938917	 0.000000
	 0.616162	 0.000000	 -0.666769	 0.000000	 0.000000	 -4.682635	 0.000000
	 0.626263	 0.000000	 -0.712694	 0.000000	 0.000000	 -4.407497	 0.000000
	 0.636364	 0.000000	 -0.755750	 0.000000	 0.000000	 -4.114611	 0.000000
	 0.646465	 0.000000	 -0.795762	 0.000000	 0.000000	 -3.805158	 0.000000
	 0.656566	 0.000000	 -0.832570	 0.000000	 0.000000	 -3.480382	 0.000000
	 0.666667	 0.000000	 -0.866025	 0.000000	 0.000000	 -3.141593	 0.000000
	 0.676768	 0.000000	 -0.895994	 0.000000	 0.000000	 -2.790153	 0.000000
	 0.686869	 0.000000	 -0.922354	 0.000000	 0.000000	 -2.427478	 0.000000
	 0.696970	 0.000000	 -0.945001	 0.000000	 0.000000	 -2.055029	 0.000000
	 0.707071	 0.000000	 -0.963842	 0.000000	 0.000000	 -1.674304	 0.000000
	 0.717172	 0.000000	 -0.978802	 0.000000	 0.000000	 -1.286838	 0.000000
	 0.727273	 0.000000	 -0.989821	 0.000000	 0.000000	 -0.894191	 0.000000
	 0.737374	 0.000000	 -0.996855	 0.000000	 0.000000	 -0.497942	 0.000000
	 0.747475	 0.000000	 -0.999874	 0.000000	 0.000000	 -0.099689	 0.000000
	 0.757576	 0.000000	 -0.998867	 0.000000	 0.000000	 0.298966	 0.000000
	 0.767677	 0.000000	 -0.993838	 0.000000	 0.000000	 0.696417	 0.000000
	 0.777778	 0.000000	 -0.984808	 0.000000	 0.000000	 1.091064	 0.000000
	 0.787879	 0.000000	 -0.971812	 0.000000	 0.000000	 1.481317	 0.000000
	 0.797980	 0.000000	 -0.954902	 0.000000	 0.000000	 1.865606	 0.000000
	 0.808081	 0.000000	 -0.934148	 0.000000	 0.000000	 2.242382	 0.000000
	 0.818182	 0.000000	 -0.909632	 0.000000	 0.000000	 2.610130	 0.000000
	 0.828283	 0.000000	 -0.881453	 0.000000	 0.000000	 2.967367	 0.000000
	 0.838384	 0.000000	 -0.849725	 0.000000	 0.000000	 3.312655	 0.000000
	 0.848485	 0.000000	 -0.814576	 0.000000	 0.000000	 3.644605	 0.000000
	 0.858586	 0.000000	 -0.776146	 0.000000	 0.000000	 3.961879	 0.000000
	 0.868687	 0.000000	 -0.734592	 0.000000	 0.000000	 4.263200	 0.000000
	 0.878788	 0.000000	 -0.690079	 0.000000	 0.000000	 4.547355	 0.000000
	 0.888889	 0.000000	 -0.642788	 0.000000	 0.000000	 4.813199	 0.000000
	 0.898990	 0.000000	 -0.592908	 0.000000	 0.000000	 5.059662	 0.000000
	 0.909091	 0.000000	 -0.540641	 0.000000	 0.000000	 5.285752	 0.000000
	 0.919192	 0.000000	 -0.486197	 0.000000	 0.000000	 5.490558	 0.000000
	 0.929293	 0.000000	 -0.429795	 0.000000	 0.000000	 5.673255	 0.000000
	 0.939394	 0.000000	 -0.371662	 0.000000	 0.000000	 5.833108	 0.000000
	 0.949495	 0.000000	 -0.312033	 0.000000	 0.000000	 5.969473	 0.000000
	 0.959596	 0.000000	 -0.251148	 0.000000	 0.000000	 6.081801	 0.000000
	 0.969697	 0.000000	 -0.189251	 0.000000	 0.000000	 6.169640	 0.000000
	 0.979798	 0.000000	 -0.126592	 0.000000	 0.000000	 6.232636	 0.000000
	 0.989899	 0.000000	 -0.063424	 0.000000	 0.000000	 6.270535	 0.000000
	 1.000000	 0.000000	 -0.000000	 0.000000	 0.000000	 6.283185	 0.000000
